<?xml version="1.0" standalone="no"?>
<!DOCTYPE svg PUBLIC "-//W3C//DTD SVG 20010904//EN"
 "http://www.w3.org/TR/2001/REC-SVG-20010904/DTD/svg10.dtd">
<svg version="1.0" xmlns="http://www.w3.org/2000/svg"
 width="700.000000pt" height="700.000000pt" viewBox="0 0 700.000000 700.000000"
 preserveAspectRatio="xMidYMid meet">
<metadata>
Created by potrace 1.11, written by Peter Selinger 2001-2013
</metadata>
<g transform="translate(0.000000,700.000000) scale(0.100000,-0.100000)"
fill="#000000" stroke="none">
<path d="M3433 6977 c-386 -269 -735 -689 -933 -1122 -117 -253 -203 -538
-235 -772 -3 -21 -7 -51 -10 -68 -13 -87 -19 -209 -19 -375 0 -222 9 -324 48
-530 14 -75 21 -107 43 -185 14 -49 26 -94 27 -100 1 -5 6 -20 10 -32 6 -18
-9 -38 -97 -125 -57 -57 -125 -130 -149 -163 -202 -269 -312 -607 -302 -925 2
-75 13 -202 20 -230 1 -8 6 -28 9 -45 50 -253 185 -514 367 -710 57 -60 68
-67 108 -71 80 -8 123 34 135 136 4 30 10 75 15 100 4 25 8 52 8 60 0 8 10 78
21 155 12 77 24 160 27 185 14 111 52 169 112 171 91 3 363 2 366 -2 2 -2 -7
-53 -20 -114 -13 -60 -25 -121 -28 -135 -2 -14 -12 -66 -22 -117 -22 -115 -14
-157 35 -190 l34 -23 489 0 c528 0 537 1 571 53 23 36 22 71 -13 243 -17 82
-33 163 -36 179 -3 17 -9 47 -13 68 -6 26 -5 37 3 38 6 0 93 1 193 1 153 1
186 -2 207 -16 36 -23 56 -57 62 -102 2 -22 7 -50 9 -64 3 -14 7 -50 11 -80 3
-30 7 -57 9 -60 2 -3 6 -34 10 -70 3 -36 8 -72 10 -80 4 -14 17 -101 30 -205
12 -92 52 -135 129 -135 35 0 46 7 101 63 318 321 464 801 389 1272 -24 151
-94 346 -175 487 -70 123 -145 217 -260 330 l-100 98 30 102 c17 57 32 114 35
128 3 14 7 36 10 50 3 13 8 42 12 64 3 22 7 43 9 46 4 7 12 62 20 135 4 33 9
71 11 85 12 59 10 452 -3 565 -38 347 -128 654 -284 971 -194 394 -473 734
-822 1001 -114 87 -158 99 -214 60z m131 -289 c227 -188 433 -423 573 -652
l53 -86 -690 0 -690 0 41 68 c58 94 173 258 199 282 3 3 34 39 70 80 71 82
188 199 264 263 27 23 61 52 75 64 14 12 32 23 40 23 7 0 36 -19 65 -42z m765
-1023 c61 -128 155 -464 176 -630 4 -27 10 -77 14 -110 11 -77 15 -181 13
-325 -1 -121 -4 -156 -27 -350 -17 -137 -75 -344 -220 -790 -36 -113 -102
-315 -145 -450 -43 -135 -92 -289 -110 -342 -17 -54 -34 -98 -38 -99 -38 -5
-977 -2 -985 3 -5 3 -27 59 -48 125 -64 203 -115 362 -169 528 -28 88 -70 216
-92 285 -162 508 -170 539 -203 752 -21 137 -28 241 -27 408 1 140 3 164 17
295 22 197 83 438 167 650 l39 101 807 -1 807 0 24 -50z m367 -2299 c136 -179
217 -382 249 -626 9 -62 6 -233 -4 -305 -18 -121 -58 -255 -109 -365 -23 -49
-83 -152 -87 -148 -2 2 -6 26 -9 53 -43 333 -61 396 -132 474 -72 80 -167 118
-291 117 -42 -1 -63 3 -63 11 0 6 27 96 61 200 33 103 85 265 115 358 30 94
71 220 91 281 l36 112 49 -52 c27 -28 69 -78 94 -110z m-2232 117 c4 -16 24
-82 46 -148 21 -66 75 -235 120 -375 45 -140 92 -285 104 -322 l23 -68 -26 -1
c-59 -1 -130 -7 -162 -14 -110 -24 -220 -129 -250 -241 -14 -50 -15 -52 -40
-234 -22 -158 -23 -161 -41 -138 -49 65 -126 249 -161 387 -18 74 -21 113 -21
276 0 174 2 199 28 297 57 225 187 458 330 590 33 31 41 29 50 -9z m1289
-1154 c9 -12 68 -332 62 -337 -11 -12 -635 -9 -635 2 0 6 14 83 32 173 l32
162 36 3 c52 4 470 2 473 -3z"/>
<path d="M3397 5359 c-218 -34 -412 -172 -513 -365 -63 -120 -78 -187 -78
-334 1 -109 4 -135 28 -205 101 -296 358 -484 664 -486 111 0 205 21 307 71
92 45 119 64 196 142 135 135 205 325 195 523 -5 109 -20 164 -72 271 -89 184
-253 317 -453 369 -70 18 -204 25 -274 14z m235 -248 c113 -36 202 -104 263
-201 112 -177 83 -422 -66 -569 -152 -149 -372 -180 -557 -78 -187 104 -280
338 -215 542 45 142 156 254 298 302 76 26 203 28 277 4z"/>
<path d="M2918 3606 c-3 -9 -2 -200 1 -217 1 -3 53 -5 116 -5 l115 0 0 116 0
116 -114 1 c-77 0 -116 -3 -118 -11z"/>
<path d="M3386 3611 c-2 -3 -3 -55 -2 -116 l1 -110 112 -1 c96 -1 113 1 117
15 2 9 3 61 2 116 l-1 100 -113 1 c-62 0 -115 -2 -116 -5z"/>
<path d="M3850 3501 l0 -117 115 0 c63 -1 115 2 116 5 4 23 3 214 -1 220 -3 4
-56 8 -117 8 l-113 0 0 -116z"/>
<path d="M6767 2905 c-2 -8 -1 -179 2 -211 1 -7 40 -11 116 -10 l115 0 0 116
0 116 -115 0 c-71 0 -116 -4 -118 -11z"/>
<path d="M10 2682 c-6 -2 -10 -51 -10 -118 l0 -114 115 0 c63 0 115 3 116 8 6
44 2 215 -6 220 -10 6 -198 9 -215 4z"/>
<path d="M0 2101 l0 -118 78 0 c220 0 409 -55 571 -165 59 -41 188 -170 229
-229 79 -117 131 -242 152 -369 9 -55 10 -75 1 -78 -43 -14 -193 -147 -249
-220 -21 -28 -27 -31 -42 -20 -65 48 -143 99 -190 125 -145 79 -344 134 -500
137 l-45 1 -3 -115 -3 -116 38 -2 c32 -2 125 -13 143 -17 3 -1 21 -5 40 -9
256 -56 496 -251 618 -501 38 -78 54 -126 73 -215 15 -72 18 -92 20 -143 l3
-48 115 3 116 3 -1 45 c-3 200 -83 436 -211 621 l-31 45 26 35 c121 159 224
229 415 279 82 22 243 20 331 -4 130 -36 278 -130 355 -227 32 -39 34 -44 21
-73 -54 -132 -72 -203 -84 -338 l-4 -38 118 0 117 0 6 62 c10 97 15 117 57
204 95 205 312 337 535 327 94 -4 185 -23 209 -45 6 -4 10 -74 10 -155 l1
-148 115 0 115 0 0 465 0 465 -116 0 -115 1 -1 -183 c0 -101 -3 -186 -6 -189
-3 -4 -28 -1 -54 6 -74 19 -224 24 -300 10 -158 -29 -311 -100 -408 -191 l-30
-28 -69 65 c-149 141 -302 218 -505 254 -91 16 -281 13 -310 -4 -4 -3 -25 -7
-48 -10 l-41 -7 -7 47 c-10 67 -60 206 -108 299 -169 325 -499 558 -867 610
-19 3 -90 7 -157 10 l-123 4 0 -118z"/>
<path d="M6807 2214 c-1 -1 -29 -4 -62 -7 -371 -36 -727 -285 -903 -632 -39
-78 -88 -219 -97 -278 -8 -51 -5 -50 -100 -30 -53 11 -78 13 -160 14 -242 2
-475 -93 -651 -266 l-65 -64 -32 28 c-97 83 -214 144 -342 176 -74 19 -111 23
-205 20 -63 -1 -124 -5 -135 -8 -65 -18 -85 -19 -86 -6 -1 8 -2 93 -3 189 l-1
175 -113 1 c-107 1 -112 0 -116 -20 -3 -11 -4 -221 -3 -466 l2 -445 115 0 115
0 0 149 1 148 27 15 c70 36 235 48 342 23 60 -13 180 -70 215 -100 14 -12 34
-30 45 -39 11 -9 41 -43 66 -76 69 -91 118 -223 119 -322 l0 -43 119 0 120 0
-5 43 c-14 139 -38 237 -75 309 -10 20 -19 44 -19 53 0 22 120 139 183 178
216 137 470 152 690 41 106 -53 179 -117 260 -224 l26 -36 -38 -54 c-119 -168
-190 -376 -206 -602 l-3 -58 119 0 119 0 1 48 c1 47 2 57 13 122 37 222 186
455 377 589 146 103 342 171 497 171 l42 0 0 119 0 118 -67 -4 c-38 -2 -93 -8
-123 -14 -30 -6 -66 -12 -80 -15 -129 -24 -309 -113 -470 -232 -15 -11 -21 -8
-45 24 -42 56 -134 141 -193 181 -29 19 -56 41 -59 48 -6 16 12 110 34 180 87
274 313 505 582 595 108 36 199 51 324 53 l98 1 -3 115 -3 116 -93 0 c-51 1
-94 0 -95 -1z"/>
<path d="M5602 1983 l3 -117 113 0 c93 -1 112 2 113 14 0 8 1 60 2 115 l2 100
-118 3 -118 3 3 -118z"/>
<path d="M6541 1630 c-4 -3 -7 -56 -7 -117 l0 -113 116 0 116 0 1 115 c1 100
-1 115 -16 116 -58 4 -204 3 -210 -1z"/>
<path d="M1286 811 c-3 -6 -1 -209 3 -222 0 -3 52 -5 114 -5 l112 1 0 115 0
115 -113 1 c-62 0 -114 -2 -116 -5z"/>
<path d="M4327 228 c-8 -4 -12 -41 -11 -115 l0 -108 117 -3 117 -3 0 118 0
118 -106 0 c-58 0 -111 -3 -117 -7z"/>
</g>
</svg>
